PathFileType	4	(X/Y/Z)	C:/Users/opensim2020/Desktop/walking_exp_matlab/subject02_walking15_straight_03.trc	
DataRate	CameraRate	NumFrames	NumMarkers	Units	OrigDataRate	OrigDataStartFrame	OrigNumFrames	
100.00	100.00	5	42	mm	100.00	1316	103	
Frame#	Time	LFHD			RFHD			LBHD			RBHD			C7			T10			CLAV			STRN			RBAK			LSHO			LUPA			LELB			LFRM			LWRA			LWRB			LFIN			RSHO			RUPA			RELB			RFRM			RWRA			RWRB			RFIN			LASI			RASI			LPSI			RPSI			LTHI			LKNE			LTIB			LANK			LHEE			LTOE			RTHI			RKNE			RTIB			RANK			RHEE			RTOE			*39			*40			*41			
		X1	Y1	Z1	X2	Y2	Z2	X3	Y3	Z3	X4	Y4	Z4	X5	Y5	Z5	X6	Y6	Z6	X7	Y7	Z7	X8	Y8	Z8	X9	Y9	Z9	X10	Y10	Z10	X11	Y11	Z11	X12	Y12	Z12	X13	Y13	Z13	X14	Y14	Z14	X15	Y15	Z15	X16	Y16	Z16	X17	Y17	Z17	X18	Y18	Z18	X19	Y19	Z19	X20	Y20	Z20	X21	Y21	Z21	X22	Y22	Z22	X23	Y23	Z23	X24	Y24	Z24	X25	Y25	Z25	X26	Y26	Z26	X27	Y27	Z27	X28	Y28	Z28	X29	Y29	Z29	X30	Y30	Z30	X31	Y31	Z31	X32	Y32	Z32	X33	Y33	Z33	X34	Y34	Z34	X35	Y35	Z35	X36	Y36	Z36	X37	Y37	Z37	X38	Y38	Z38	X39	Y39	Z39	X40	Y40	Z40	X41	Y41	Z41	X42	Y42	Z42	

39	0.380	1392.50195	-220.78250	1723.05322	1536.63330	-219.93941	1711.70874	1390.31616	-359.60257	1664.41150	1533.38367	-371.39307	1653.26489	1463.71472	-424.91678	1523.10706	1481.51611	-477.68958	1246.65833	1458.10132	-288.46829	1453.77966	1475.31213	-235.98360	1283.43225	1532.43311	-487.99988	1348.74377	1286.48193	-353.04285	1489.67822	1202.46753	-404.76218	1296.58496	1188.61633	-443.65421	1166.58533	1158.84045	-484.48511	1048.27002	1166.83142	-482.47110	907.01135	1137.51843	-524.64478	933.07263	1125.32397	-533.44012	867.27820	1650.20740	-363.20465	1498.31458	1753.69312	-399.23175	1324.05920	1805.13928	-371.63699	1185.57385	1825.89636	-299.72147	1086.62122	1805.49548	-206.48181	991.07275	1841.31799	-244.30348	969.02386	1842.75183	-182.22391	931.37976	1360.98218	-257.98975	978.09601	1615.44128	-265.55865	968.61322	1430.80188	-465.47440	1033.87292	1545.86267	-473.70612	1034.95374	1326.22302	-282.74652	663.58563	1385.31653	-287.33368	467.04175	1408.55432	-345.13263	281.76706	1470.07190	-344.86130	66.49538	1526.05627	-377.66226	41.61477	1445.31042	-192.18359	33.11567	1708.41992	-353.04926	673.20178	1707.22498	-363.33051	472.28430	1697.06323	-514.59808	367.89645	1653.08325	-653.92688	240.01518	1584.56665	-695.77783	219.16110	1702.24805	-615.78320	89.09618	1480.65479	-311.59671	1804.30957	-3357.46191	2846.00537	1034.30774			 
40	0.390	1392.41052	-207.59952	1725.08679	1536.50562	-206.88390	1713.79944	1390.14856	-346.48169	1666.64600	1533.00159	-358.55692	1655.67786	1463.45435	-411.92795	1525.24536	1480.52759	-464.33057	1248.61780	1458.16003	-275.49576	1456.05847	1475.24182	-222.74934	1285.75769	1531.00195	-474.99237	1350.29773	1286.29492	-339.83347	1492.31763	1202.33398	-387.27670	1297.50879	1188.96252	-423.80499	1166.67334	1159.77148	-461.97928	1047.11865	1170.18896	-456.28284	905.92944	1139.63000	-498.21945	930.48792	1128.07153	-504.77914	864.31757	1649.88245	-351.43213	1499.84912	1752.01721	-389.04010	1325.18530	1802.78357	-363.25287	1186.07373	1824.10754	-294.18649	1085.30078	1803.42883	-203.26715	986.79254	1839.33179	-242.08369	966.04822	1840.25183	-181.51122	925.86560	1360.22974	-245.13631	979.89508	1615.32288	-251.93108	972.04126	1429.99316	-452.20831	1036.04126	1544.79663	-460.00732	1037.62012	1326.62207	-275.10349	663.60150	1385.54529	-284.17877	467.20673	1408.94641	-343.84219	282.35727	1470.22449	-344.70685	66.75004	1526.17554	-377.51221	41.95107	1445.40137	-192.03130	32.93642	1707.79016	-331.79706	675.57764	1706.67065	-336.16934	475.27060	1695.95190	-485.42807	368.30444	1652.39880	-622.16577	237.58858	1584.03015	-664.28674	214.73318	1703.19873	-579.69678	89.06273	1480.46228	-298.35425	1806.58301	-3357.35059	2845.97437	1034.39331			 
41	0.400	1392.33691	-194.40433	1726.90356	1536.42053	-193.79955	1715.70129	1390.12634	-333.37238	1668.64636	1532.77625	-345.29263	1657.27856	1463.14856	-399.05997	1527.11755	1479.54272	-450.96289	1250.47156	1458.18848	-262.50031	1458.10413	1475.05933	-209.51408	1287.81604	1529.98523	-461.94113	1351.97131	1286.09009	-326.67950	1494.73877	1202.18835	-370.27502	1298.67676	1188.99927	-404.54190	1166.67810	1160.65845	-438.63843	1045.45630	1173.71533	-428.92737	904.67804	1141.75244	-471.18240	927.74237	1130.79907	-475.65411	861.40045	1649.95508	-339.04681	1501.43921	1750.23840	-378.73956	1326.11243	1800.45386	-354.82129	1186.58508	1821.85388	-288.69067	1083.74097	1801.36377	-200.85152	982.31836	1837.43372	-240.30760	963.07184	1838.00598	-181.42557	920.26257	1359.59729	-232.38618	981.72583	1615.00769	-238.28371	975.51697	1429.19885	-438.91003	1037.89941	1543.85742	-446.22565	1040.03650	1327.86145	-268.49826	663.77997	1385.69812	-280.96182	467.27219	1409.28540	-342.48761	282.89468	1470.35986	-344.55078	66.99016	1526.39282	-377.59198	42.42231	1445.15393	-191.97194	33.09599	1707.47998	-310.44736	678.45929	1705.65784	-309.32367	478.03934	1694.96484	-455.90939	367.97961	1651.97192	-589.61945	233.93465	1583.90686	-632.07452	209.16040	1704.11694	-541.24927	88.34393	1480.30432	-285.13211	1808.57202	-3355.44800	2846.72510	1034.35522			 
42	0.410	1392.16809	-181.30795	1728.52563	1536.38794	-180.69820	1717.37390	1390.03638	-320.29852	1670.35583	1532.65234	-332.26096	1659.04541	1462.83325	-385.81964	1528.67957	1478.47034	-437.67252	1252.01709	1458.11780	-249.42075	1459.90625	1474.73743	-196.34634	1289.53333	1528.61841	-448.92029	1353.04346	1285.91553	-313.62918	1496.93018	1202.06384	-353.24304	1299.50659	1189.27991	-384.75320	1166.51721	1162.25891	-414.55313	1043.72668	1177.31531	-401.14087	903.78143	1144.11523	-443.26407	924.91296	1133.86365	-445.51190	858.55200	1649.33618	-326.85867	1502.66650	1748.88208	-367.74677	1327.12561	1798.08826	-346.24933	1187.04114	1819.79419	-283.33582	1082.26050	1799.47754	-198.63054	977.70081	1835.54224	-238.92133	960.04712	1836.03284	-181.62863	914.77429	1358.86963	-219.88470	983.26001	1614.40161	-224.44290	978.87750	1428.55334	-425.71353	1039.55579	1543.25623	-432.56946	1042.24866	1328.67334	-262.01340	663.95862	1386.04150	-277.91953	467.40894	1409.47668	-340.92657	283.37793	1470.50159	-344.42294	67.20004	1526.24524	-377.63309	43.00620	1445.07568	-191.92216	33.03748	1707.00708	-289.55804	681.09344	1704.33606	-282.86075	480.89651	1694.22827	-426.09100	366.86313	1651.64160	-556.34119	229.00235	1584.07959	-599.15149	202.20320	1704.27026	-501.96561	86.46587	1480.37463	-271.80942	1810.28711	-3356.78638	2845.96265	1034.58777			 
43	0.420	1392.07959	-168.32762	1729.91748	1536.31470	-167.57208	1718.74451	1389.94629	-307.07410	1671.75671	1532.94702	-319.14630	1660.75244	1462.47290	-372.85800	1530.09509	1477.43909	-424.45435	1253.37109	1458.00659	-236.32817	1461.49634	1474.28210	-183.20232	1290.98865	1527.89136	-435.86057	1354.46594	1285.67981	-300.52109	1498.84192	1201.99426	-336.41812	1300.09143	1189.40222	-364.77429	1166.19299	1163.61060	-390.48572	1042.14685	1180.69592	-373.09857	902.59692	1147.24524	-413.90457	922.09601	1137.12732	-414.65097	855.87640	1649.23462	-313.92581	1503.71411	1747.52307	-356.80569	1328.00928	1795.79260	-337.60898	1187.44324	1817.58252	-278.02570	1080.73804	1797.68152	-196.99953	973.16888	1833.75916	-237.83861	957.06409	1834.14417	-182.35812	909.45898	1358.19800	-207.32988	984.70404	1613.47266	-210.44171	982.03864	1428.06226	-412.46661	1040.88782	1542.90649	-418.89133	1044.04761	1329.53198	-255.64050	663.89966	1386.36987	-275.03644	467.50790	1409.67993	-339.43649	283.80780	1470.62134	-344.21597	67.46394	1526.80042	-377.19452	43.24201	1444.99072	-191.87032	32.99199	1706.59143	-268.99445	683.78656	1703.16528	-256.69000	483.74338	1693.48730	-396.15936	365.01880	1651.53821	-522.31677	223.05127	1584.48120	-565.12378	193.82706	1704.08350	-460.76089	83.74403	1480.09790	-258.88708	1811.63232	-3356.93262	2846.22607	1034.32886			 
